{
	"patcher" : 	{
		"fileversion" : 1,
		"appversion" : 		{
			"major" : 7,
			"minor" : 0,
			"revision" : 5,
			"architecture" : "x86",
			"modernui" : 1
		}
,
		"rect" : [ 437.0, 201.0, 442.0, 315.0 ],
		"bglocked" : 0,
		"openinpresentation" : 0,
		"default_fontsize" : 12.0,
		"default_fontface" : 0,
		"default_fontname" : "Arial",
		"gridonopen" : 1,
		"gridsize" : [ 15.0, 15.0 ],
		"gridsnaponopen" : 1,
		"objectsnaponopen" : 1,
		"statusbarvisible" : 2,
		"toolbarvisible" : 1,
		"lefttoolbarpinned" : 0,
		"toptoolbarpinned" : 0,
		"righttoolbarpinned" : 0,
		"bottomtoolbarpinned" : 0,
		"toolbars_unpinned_last_save" : 0,
		"tallnewobj" : 0,
		"boxanimatetime" : 200,
		"enablehscroll" : 1,
		"enablevscroll" : 1,
		"devicewidth" : 0.0,
		"description" : "",
		"digest" : "",
		"tags" : "",
		"style" : "",
		"subpatcher_template" : "",
		"boxes" : [ 			{
				"box" : 				{
					"id" : "obj-25",
					"maxclass" : "message",
					"numinlets" : 2,
					"numoutlets" : 1,
					"outlettype" : [ "" ],
					"patching_rect" : [ 7.0, 266.0, 403.0, 22.0 ],
					"style" : "",
					"text" : "(in[0].p[0]+1)*in[1] (in[0].p[1]-2)*in[1] (in[0].p[2])*in[1]"
				}

			}
, 			{
				"box" : 				{
					"fontname" : "Arial",
					"fontsize" : 9.0,
					"hidden" : 1,
					"id" : "obj-2",
					"maxclass" : "newobj",
					"numinlets" : 1,
					"numoutlets" : 1,
					"outlettype" : [ "bang" ],
					"patching_rect" : [ 7.0, 14.0, 48.0, 19.0 ],
					"style" : "",
					"text" : "loadbang"
				}

			}
, 			{
				"box" : 				{
					"fontname" : "Arial",
					"fontsize" : 9.0,
					"hidden" : 1,
					"id" : "obj-3",
					"maxclass" : "newobj",
					"numinlets" : 1,
					"numoutlets" : 3,
					"outlettype" : [ "bang", "bang", "bang" ],
					"patching_rect" : [ 364.0, 74.0, 40.0, 19.0 ],
					"style" : "",
					"text" : "t b b b"
				}

			}
, 			{
				"box" : 				{
					"fontname" : "Arial",
					"fontsize" : 9.0,
					"id" : "obj-4",
					"maxclass" : "message",
					"numinlets" : 2,
					"numoutlets" : 1,
					"outlettype" : [ "" ],
					"patching_rect" : [ 364.0, 55.0, 34.0, 19.0 ],
					"style" : "",
					"text" : "enter"
				}

			}
, 			{
				"box" : 				{
					"fontname" : "Arial",
					"fontsize" : 9.0,
					"hidden" : 1,
					"id" : "obj-5",
					"maxclass" : "newobj",
					"numinlets" : 1,
					"numoutlets" : 5,
					"outlettype" : [ "", "", "", "", "" ],
					"patching_rect" : [ 245.0, 198.0, 96.0, 19.0 ],
					"style" : "",
					"text" : "regexp z in[0].p[2]"
				}

			}
, 			{
				"box" : 				{
					"fontname" : "Arial",
					"fontsize" : 9.0,
					"hidden" : 1,
					"id" : "obj-6",
					"maxclass" : "newobj",
					"numinlets" : 1,
					"numoutlets" : 5,
					"outlettype" : [ "", "", "", "", "" ],
					"patching_rect" : [ 245.0, 176.0, 97.0, 19.0 ],
					"style" : "",
					"text" : "regexp y in[0].p[1]"
				}

			}
, 			{
				"box" : 				{
					"fontname" : "Arial",
					"fontsize" : 9.0,
					"hidden" : 1,
					"id" : "obj-7",
					"maxclass" : "newobj",
					"numinlets" : 1,
					"numoutlets" : 5,
					"outlettype" : [ "", "", "", "", "" ],
					"patching_rect" : [ 245.0, 154.0, 97.0, 19.0 ],
					"style" : "",
					"text" : "regexp x in[0].p[0]"
				}

			}
, 			{
				"box" : 				{
					"fontname" : "Arial",
					"fontsize" : 9.0,
					"hidden" : 1,
					"id" : "obj-8",
					"maxclass" : "newobj",
					"numinlets" : 1,
					"numoutlets" : 5,
					"outlettype" : [ "", "", "", "", "" ],
					"patching_rect" : [ 126.0, 198.0, 96.0, 19.0 ],
					"style" : "",
					"text" : "regexp z in[0].p[2]"
				}

			}
, 			{
				"box" : 				{
					"fontname" : "Arial",
					"fontsize" : 9.0,
					"hidden" : 1,
					"id" : "obj-9",
					"maxclass" : "newobj",
					"numinlets" : 1,
					"numoutlets" : 5,
					"outlettype" : [ "", "", "", "", "" ],
					"patching_rect" : [ 126.0, 176.0, 97.0, 19.0 ],
					"style" : "",
					"text" : "regexp y in[0].p[1]"
				}

			}
, 			{
				"box" : 				{
					"fontname" : "Arial",
					"fontsize" : 9.0,
					"hidden" : 1,
					"id" : "obj-10",
					"maxclass" : "newobj",
					"numinlets" : 1,
					"numoutlets" : 5,
					"outlettype" : [ "", "", "", "", "" ],
					"patching_rect" : [ 126.0, 154.0, 97.0, 19.0 ],
					"style" : "",
					"text" : "regexp x in[0].p[0]"
				}

			}
, 			{
				"box" : 				{
					"fontname" : "Arial",
					"fontsize" : 9.0,
					"hidden" : 1,
					"id" : "obj-11",
					"maxclass" : "newobj",
					"numinlets" : 1,
					"numoutlets" : 5,
					"outlettype" : [ "", "", "", "", "" ],
					"patching_rect" : [ 7.0, 198.0, 96.0, 19.0 ],
					"style" : "",
					"text" : "regexp z in[0].p[2]"
				}

			}
, 			{
				"box" : 				{
					"fontname" : "Arial",
					"fontsize" : 9.0,
					"hidden" : 1,
					"id" : "obj-12",
					"maxclass" : "newobj",
					"numinlets" : 1,
					"numoutlets" : 5,
					"outlettype" : [ "", "", "", "", "" ],
					"patching_rect" : [ 7.0, 176.0, 97.0, 19.0 ],
					"style" : "",
					"text" : "regexp y in[0].p[1]"
				}

			}
, 			{
				"box" : 				{
					"fontname" : "Arial",
					"fontsize" : 9.0,
					"hidden" : 1,
					"id" : "obj-13",
					"maxclass" : "newobj",
					"numinlets" : 1,
					"numoutlets" : 5,
					"outlettype" : [ "", "", "", "", "" ],
					"patching_rect" : [ 7.0, 154.0, 97.0, 19.0 ],
					"style" : "",
					"text" : "regexp x in[0].p[0]"
				}

			}
, 			{
				"box" : 				{
					"fontname" : "Arial",
					"fontsize" : 9.0,
					"hidden" : 1,
					"id" : "obj-14",
					"maxclass" : "newobj",
					"numinlets" : 2,
					"numoutlets" : 2,
					"outlettype" : [ "", "" ],
					"patching_rect" : [ 245.0, 133.0, 56.0, 19.0 ],
					"style" : "",
					"text" : "route text"
				}

			}
, 			{
				"box" : 				{
					"fontname" : "Arial",
					"fontsize" : 9.0,
					"hidden" : 1,
					"id" : "obj-15",
					"maxclass" : "newobj",
					"numinlets" : 2,
					"numoutlets" : 2,
					"outlettype" : [ "", "" ],
					"patching_rect" : [ 126.0, 133.0, 56.0, 19.0 ],
					"style" : "",
					"text" : "route text"
				}

			}
, 			{
				"box" : 				{
					"fontname" : "Arial",
					"fontsize" : 9.0,
					"hidden" : 1,
					"id" : "obj-16",
					"maxclass" : "newobj",
					"numinlets" : 2,
					"numoutlets" : 2,
					"outlettype" : [ "", "" ],
					"patching_rect" : [ 7.0, 133.0, 56.0, 19.0 ],
					"style" : "",
					"text" : "route text"
				}

			}
, 			{
				"box" : 				{
					"fontname" : "Arial",
					"fontsize" : 9.0,
					"id" : "obj-17",
					"maxclass" : "comment",
					"numinlets" : 1,
					"numoutlets" : 0,
					"patching_rect" : [ 298.0, 39.0, 16.0, 17.0 ],
					"style" : "",
					"text" : "z"
				}

			}
, 			{
				"box" : 				{
					"fontname" : "Arial",
					"fontsize" : 9.0,
					"id" : "obj-18",
					"maxclass" : "comment",
					"numinlets" : 1,
					"numoutlets" : 0,
					"patching_rect" : [ 180.0, 39.0, 16.0, 17.0 ],
					"style" : "",
					"text" : "y"
				}

			}
, 			{
				"box" : 				{
					"autoscroll" : 0,
					"fontname" : "Geneva",
					"fontsize" : 9.0,
					"id" : "obj-19",
					"lines" : 5,
					"maxclass" : "textedit",
					"numinlets" : 1,
					"numoutlets" : 4,
					"outlettype" : [ "", "int", "", "" ],
					"parameter_enable" : 0,
					"patching_rect" : [ 245.0, 55.0, 117.0, 66.0 ],
					"style" : "",
					"tabmode" : 0,
					"text" : "z",
					"wordwrap" : 0
				}

			}
, 			{
				"box" : 				{
					"autoscroll" : 0,
					"fontname" : "Geneva",
					"fontsize" : 9.0,
					"id" : "obj-20",
					"lines" : 5,
					"maxclass" : "textedit",
					"numinlets" : 1,
					"numoutlets" : 4,
					"outlettype" : [ "", "int", "", "" ],
					"parameter_enable" : 0,
					"patching_rect" : [ 126.0, 55.0, 117.0, 66.0 ],
					"style" : "",
					"tabmode" : 0,
					"text" : "y-2",
					"wordwrap" : 0
				}

			}
, 			{
				"box" : 				{
					"autoscroll" : 0,
					"fontname" : "Geneva",
					"fontsize" : 9.0,
					"id" : "obj-21",
					"lines" : 5,
					"maxclass" : "textedit",
					"numinlets" : 1,
					"numoutlets" : 4,
					"outlettype" : [ "", "int", "", "" ],
					"parameter_enable" : 0,
					"patching_rect" : [ 7.0, 55.0, 117.0, 66.0 ],
					"style" : "",
					"tabmode" : 0,
					"text" : "x+1\t",
					"wordwrap" : 0
				}

			}
, 			{
				"box" : 				{
					"fontname" : "Arial",
					"fontsize" : 9.0,
					"hidden" : 1,
					"id" : "obj-22",
					"maxclass" : "newobj",
					"numinlets" : 3,
					"numoutlets" : 1,
					"outlettype" : [ "" ],
					"patching_rect" : [ 7.0, 231.0, 236.0, 19.0 ],
					"style" : "",
					"text" : "sprintf \\\"(%s)*in[1]\\\" \\\"(%s)*in[1]\\\" \\\"(%s)*in[1]\\\""
				}

			}
, 			{
				"box" : 				{
					"fontname" : "Arial",
					"fontsize" : 9.0,
					"id" : "obj-23",
					"maxclass" : "comment",
					"numinlets" : 1,
					"numoutlets" : 0,
					"patching_rect" : [ 59.0, 39.0, 16.0, 17.0 ],
					"style" : "",
					"text" : "x"
				}

			}
 ],
		"lines" : [ 			{
				"patchline" : 				{
					"destination" : [ "obj-9", 0 ],
					"disabled" : 0,
					"hidden" : 1,
					"midpoints" : [ 194.0, 173.0, 135.5, 173.0 ],
					"source" : [ "obj-10", 3 ]
				}

			}
, 			{
				"patchline" : 				{
					"destination" : [ "obj-9", 0 ],
					"disabled" : 0,
					"hidden" : 1,
					"source" : [ "obj-10", 0 ]
				}

			}
, 			{
				"patchline" : 				{
					"destination" : [ "obj-22", 0 ],
					"disabled" : 0,
					"hidden" : 1,
					"midpoints" : [ 74.25, 219.0, 16.5, 219.0 ],
					"source" : [ "obj-11", 3 ]
				}

			}
, 			{
				"patchline" : 				{
					"destination" : [ "obj-22", 0 ],
					"disabled" : 0,
					"hidden" : 1,
					"source" : [ "obj-11", 0 ]
				}

			}
, 			{
				"patchline" : 				{
					"destination" : [ "obj-11", 0 ],
					"disabled" : 0,
					"hidden" : 1,
					"midpoints" : [ 75.0, 195.0, 16.5, 195.0 ],
					"source" : [ "obj-12", 3 ]
				}

			}
, 			{
				"patchline" : 				{
					"destination" : [ "obj-11", 0 ],
					"disabled" : 0,
					"hidden" : 1,
					"source" : [ "obj-12", 0 ]
				}

			}
, 			{
				"patchline" : 				{
					"destination" : [ "obj-12", 0 ],
					"disabled" : 0,
					"hidden" : 1,
					"midpoints" : [ 75.0, 173.0, 16.5, 173.0 ],
					"source" : [ "obj-13", 3 ]
				}

			}
, 			{
				"patchline" : 				{
					"destination" : [ "obj-12", 0 ],
					"disabled" : 0,
					"hidden" : 1,
					"source" : [ "obj-13", 0 ]
				}

			}
, 			{
				"patchline" : 				{
					"destination" : [ "obj-7", 0 ],
					"disabled" : 0,
					"hidden" : 1,
					"source" : [ "obj-14", 0 ]
				}

			}
, 			{
				"patchline" : 				{
					"destination" : [ "obj-10", 0 ],
					"disabled" : 0,
					"hidden" : 1,
					"source" : [ "obj-15", 0 ]
				}

			}
, 			{
				"patchline" : 				{
					"destination" : [ "obj-13", 0 ],
					"disabled" : 0,
					"hidden" : 1,
					"source" : [ "obj-16", 0 ]
				}

			}
, 			{
				"patchline" : 				{
					"destination" : [ "obj-14", 0 ],
					"disabled" : 0,
					"hidden" : 1,
					"source" : [ "obj-19", 0 ]
				}

			}
, 			{
				"patchline" : 				{
					"destination" : [ "obj-19", 0 ],
					"disabled" : 0,
					"hidden" : 1,
					"midpoints" : [ 16.5, 44.5, 254.5, 44.5 ],
					"source" : [ "obj-2", 0 ]
				}

			}
, 			{
				"patchline" : 				{
					"destination" : [ "obj-20", 0 ],
					"disabled" : 0,
					"hidden" : 1,
					"midpoints" : [ 16.5, 44.5, 135.5, 44.5 ],
					"source" : [ "obj-2", 0 ]
				}

			}
, 			{
				"patchline" : 				{
					"destination" : [ "obj-21", 0 ],
					"disabled" : 0,
					"hidden" : 1,
					"source" : [ "obj-2", 0 ]
				}

			}
, 			{
				"patchline" : 				{
					"destination" : [ "obj-15", 0 ],
					"disabled" : 0,
					"hidden" : 1,
					"source" : [ "obj-20", 0 ]
				}

			}
, 			{
				"patchline" : 				{
					"destination" : [ "obj-16", 0 ],
					"disabled" : 0,
					"hidden" : 1,
					"source" : [ "obj-21", 0 ]
				}

			}
, 			{
				"patchline" : 				{
					"destination" : [ "obj-25", 1 ],
					"disabled" : 0,
					"hidden" : 0,
					"midpoints" : [ 16.5, 257.0, 400.5, 257.0 ],
					"source" : [ "obj-22", 0 ]
				}

			}
, 			{
				"patchline" : 				{
					"destination" : [ "obj-19", 0 ],
					"disabled" : 0,
					"hidden" : 1,
					"midpoints" : [ 394.5, 95.0, 405.0, 95.0, 405.0, 53.0, 254.5, 53.0 ],
					"source" : [ "obj-3", 2 ]
				}

			}
, 			{
				"patchline" : 				{
					"destination" : [ "obj-20", 0 ],
					"disabled" : 0,
					"hidden" : 1,
					"midpoints" : [ 384.0, 97.0, 407.0, 97.0, 407.0, 44.0, 135.5, 44.0 ],
					"source" : [ "obj-3", 1 ]
				}

			}
, 			{
				"patchline" : 				{
					"destination" : [ "obj-21", 0 ],
					"disabled" : 0,
					"hidden" : 1,
					"midpoints" : [ 373.5, 99.0, 409.0, 99.0, 409.0, 44.0, 16.5, 44.0 ],
					"source" : [ "obj-3", 0 ]
				}

			}
, 			{
				"patchline" : 				{
					"destination" : [ "obj-3", 0 ],
					"disabled" : 0,
					"hidden" : 1,
					"source" : [ "obj-4", 0 ]
				}

			}
, 			{
				"patchline" : 				{
					"destination" : [ "obj-22", 2 ],
					"disabled" : 0,
					"hidden" : 1,
					"midpoints" : [ 312.25, 224.0, 233.5, 224.0 ],
					"source" : [ "obj-5", 3 ]
				}

			}
, 			{
				"patchline" : 				{
					"destination" : [ "obj-22", 2 ],
					"disabled" : 0,
					"hidden" : 1,
					"midpoints" : [ 254.5, 219.0, 233.5, 219.0 ],
					"source" : [ "obj-5", 0 ]
				}

			}
, 			{
				"patchline" : 				{
					"destination" : [ "obj-5", 0 ],
					"disabled" : 0,
					"hidden" : 1,
					"midpoints" : [ 313.0, 195.0, 254.5, 195.0 ],
					"source" : [ "obj-6", 3 ]
				}

			}
, 			{
				"patchline" : 				{
					"destination" : [ "obj-5", 0 ],
					"disabled" : 0,
					"hidden" : 1,
					"source" : [ "obj-6", 0 ]
				}

			}
, 			{
				"patchline" : 				{
					"destination" : [ "obj-6", 0 ],
					"disabled" : 0,
					"hidden" : 1,
					"midpoints" : [ 313.0, 173.0, 254.5, 173.0 ],
					"source" : [ "obj-7", 3 ]
				}

			}
, 			{
				"patchline" : 				{
					"destination" : [ "obj-6", 0 ],
					"disabled" : 0,
					"hidden" : 1,
					"source" : [ "obj-7", 0 ]
				}

			}
, 			{
				"patchline" : 				{
					"destination" : [ "obj-22", 1 ],
					"disabled" : 0,
					"hidden" : 1,
					"midpoints" : [ 193.25, 224.0, 125.0, 224.0 ],
					"source" : [ "obj-8", 3 ]
				}

			}
, 			{
				"patchline" : 				{
					"destination" : [ "obj-22", 1 ],
					"disabled" : 0,
					"hidden" : 1,
					"midpoints" : [ 135.5, 219.0, 125.0, 219.0 ],
					"source" : [ "obj-8", 0 ]
				}

			}
, 			{
				"patchline" : 				{
					"destination" : [ "obj-8", 0 ],
					"disabled" : 0,
					"hidden" : 1,
					"midpoints" : [ 194.0, 195.0, 135.5, 195.0 ],
					"source" : [ "obj-9", 3 ]
				}

			}
, 			{
				"patchline" : 				{
					"destination" : [ "obj-8", 0 ],
					"disabled" : 0,
					"hidden" : 1,
					"source" : [ "obj-9", 0 ]
				}

			}
 ],
		"dependency_cache" : [  ],
		"embedsnapshot" : 0
	}

}
